<svg width="1200" height="630" viewBox="0 0 1200 630" fill="none" xmlns="http://www.w3.org/2000/svg">
  <defs>
    <linearGradient id="bg3" x1="0" y1="0" x2="1200" y2="630" gradientUnits="userSpaceOnUse">
      <stop stop-color="#0D1B2A"/>
      <stop offset="1" stop-color="#1B263B"/>
    </linearGradient>
  </defs>
  <rect width="1200" height="630" fill="url(#bg3)"/>
  <rect x="50" y="50" width="1100" height="72" rx="12" fill="#243B55"/>
  <rect x="80" y="72" width="220" height="28" rx="8" fill="#3C5A76"/>
  <rect x="340" y="72" width="120" height="28" rx="8" fill="#2A485F"/>
  <rect x="490" y="72" width="120" height="28" rx="8" fill="#2A485F"/>
  <rect x="640" y="72" width="120" height="28" rx="8" fill="#2A485F"/>
  <rect x="1020" y="68" width="100" height="36" rx="10" fill="#7DE2DB"/>
  <rect x="50" y="150" width="1100" height="120" rx="14" fill="#2E4A62"/>
  <rect x="90" y="190" width="480" height="36" rx="8" fill="#3C5A76"/>
  <rect x="90" y="238" width="320" height="20" rx="6" fill="#466987"/>
  <rect x="50" y="300" width="260" height="280" rx="14" fill="#22384E"/>
  <rect x="70" y="320" width="220" height="150" rx="10" fill="#3A5B78"/>
  <rect x="70" y="490" width="160" height="18" rx="6" fill="#466987"/>
  <rect x="70" y="520" width="90" height="18" rx="6" fill="#7DE2DB"/>
  <rect x="340" y="300" width="260" height="280" rx="14" fill="#22384E"/>
  <rect x="360" y="320" width="220" height="150" rx="10" fill="#3A5B78"/>
  <rect x="360" y="490" width="160" height="18" rx="6" fill="#466987"/>
  <rect x="360" y="520" width="90" height="18" rx="6" fill="#7DE2DB"/>
  <rect x="630" y="300" width="260" height="280" rx="14" fill="#22384E"/>
  <rect x="650" y="320" width="220" height="150" rx="10" fill="#3A5B78"/>
  <rect x="650" y="490" width="160" height="18" rx="6" fill="#466987"/>
  <rect x="650" y="520" width="90" height="18" rx="6" fill="#7DE2DB"/>
  <rect x="920" y="300" width="230" height="280" rx="14" fill="#22384E"/>
  <rect x="940" y="320" width="190" height="150" rx="10" fill="#3A5B78"/>
  <rect x="940" y="490" width="140" height="18" rx="6" fill="#466987"/>
  <rect x="940" y="520" width="80" height="18" rx="6" fill="#7DE2DB"/>
  <text x="70" y="610" fill="#B8CCE0" font-size="28" font-family="Arial, sans-serif">Nexus Web Store • E-commerce Preview</text>
</svg>
